solid Visualization Toolkit generated SLA File
 facet normal -1 -0 0
  outer loop
   vertex 2.0254199504852295 -0.22351999580860138 0.24454499781131744
   vertex 2.0254199504852295 -4.1914001158716019e-09 0.24454499781131744
   vertex 2.0254199504852295 -0.22351999580860138 0.07309500128030777
  endloop
 endfacet
 facet normal -1 0 -0
  outer loop
   vertex 2.0254199504852295 -0.22351999580860138 0.07309500128030777
   vertex 2.0254199504852295 -4.1914001158716019e-09 0.24454499781131744
   vertex 2.0254199504852295 -4.1914001158716019e-09 0.07309500128030777
  endloop
 endfacet
endsolid
