solid Visualization Toolkit generated SLA File
 facet normal 0 1 -0
  outer loop
   vertex 2.0825700759887695 -4.1914001158716019e-09 0.24454499781131744
   vertex 2.0825700759887695 -4.1914001158716019e-09 0.07309500128030777
   vertex 2.0254199504852295 -4.1914001158716019e-09 0.24454499781131744
  endloop
 endfacet
 facet normal 0 1 0
  outer loop
   vertex 2.0254199504852295 -4.1914001158716019e-09 0.24454499781131744
   vertex 2.0825700759887695 -4.1914001158716019e-09 0.07309500128030777
   vertex 2.0254199504852295 -4.1914001158716019e-09 0.07309500128030777
  endloop
 endfacet
endsolid
