solid patch0
  facet normal -0 -0 -1
    outer loop
       vertex 2.08257 -4.1914e-09 0.073095
       vertex 2.08257 -0.22352 0.073095
       vertex 2.02542 -4.1914e-09 0.073095
    endloop
  endfacet
  facet normal 0 0 -1
    outer loop
       vertex 2.02542 -4.1914e-09 0.073095
       vertex 2.08257 -0.22352 0.073095
       vertex 2.02542 -0.22352 0.073095
    endloop
  endfacet
endsolid patch0
solid patch1
  facet normal 0 1 0
    outer loop
       vertex 2.08257 -4.1914e-09 0.244545
       vertex 2.08257 -4.1914e-09 0.073095
       vertex 2.02542 -4.1914e-09 0.244545
    endloop
  endfacet
  facet normal 0 1 0
    outer loop
       vertex 2.02542 -4.1914e-09 0.244545
       vertex 2.08257 -4.1914e-09 0.073095
       vertex 2.02542 -4.1914e-09 0.073095
    endloop
  endfacet
endsolid patch1
solid patch2
  facet normal 0 -0 1
    outer loop
       vertex 2.08257 -0.22352 0.244545
       vertex 2.08257 -4.1914e-09 0.244545
       vertex 2.02542 -0.22352 0.244545
    endloop
  endfacet
  facet normal 0 0 1
    outer loop
       vertex 2.02542 -0.22352 0.244545
       vertex 2.08257 -4.1914e-09 0.244545
       vertex 2.02542 -4.1914e-09 0.244545
    endloop
  endfacet
endsolid patch2
solid patch3
  facet normal 0 -1 0
    outer loop
       vertex 2.08257 -0.22352 0.073095
       vertex 2.08257 -0.22352 0.244545
       vertex 2.02542 -0.22352 0.073095
    endloop
  endfacet
  facet normal 0 -1 0
    outer loop
       vertex 2.02542 -0.22352 0.073095
       vertex 2.08257 -0.22352 0.244545
       vertex 2.02542 -0.22352 0.244545
    endloop
  endfacet
endsolid patch3
solid patch4
  facet normal 1 0 0
    outer loop
       vertex 2.08257 -4.1914e-09 0.244545
       vertex 2.08257 -0.22352 0.244545
       vertex 2.08257 -4.1914e-09 0.073095
    endloop
  endfacet
  facet normal 1 0 0
    outer loop
       vertex 2.08257 -4.1914e-09 0.073095
       vertex 2.08257 -0.22352 0.244545
       vertex 2.08257 -0.22352 0.073095
    endloop
  endfacet
endsolid patch4
solid patch5
  facet normal -1 0 0
    outer loop
       vertex 2.02542 -0.22352 0.244545
       vertex 2.02542 -4.1914e-09 0.244545
       vertex 2.02542 -0.22352 0.073095
    endloop
  endfacet
  facet normal -1 0 0
    outer loop
       vertex 2.02542 -0.22352 0.073095
       vertex 2.02542 -4.1914e-09 0.244545
       vertex 2.02542 -4.1914e-09 0.073095
    endloop
  endfacet
endsolid patch5
